P2
70 1
40
25	25	25	25	25	0	0	0	0	0	0	0	0	0	0	18	18	18	18	2	2	2	2	2	2	24	24	24	24	24	24	5	5	5	5	5	5	5	5	5	39	39	39	39	7	7	7	7	7	7	7	7	7	14	14	14	14	40	14	14	14	14	14	12	12	12	12	12	12	12	


