P2
70 1
40
5	5	5	5	5	5	5	5	32	32	32	32	32	32	22	22	22	22	22	22	22	22	22	22	30	28	28	28	28	17	17	17	17	17	17	17	17	17	17	17	17	17	17	17	17	17	17	17	16	16	16	16	16	16	16	16	16	16	16	16	16	16	16	16	10	10	34	34	34	34	


