P2
70 1
40
28	28	28	28	28	28	28	28	28	28	18	18	18	18	18	18	18	18	18	18	18	18	18	18	18	18	18	18	18	18	30	30	30	30	30	30	30	30	30	30	1	1	1	38	38	38	38	38	21	21	21	21	21	21	21	21	21	21	21	21	2	2	2	2	2	2	2	2	2	2	


