P2
70 1
40
32	32	32	32	32	40	32	32	32	25	25	25	25	25	18	18	18	18	18	18	18	18	17	17	17	17	17	17	34	34	34	34	34	34	34	34	34	34	34	34	24	24	24	24	24	24	35	1	1	1	1	1	1	1	1	1	1	1	1	1	1	1	1	1	1	1	1	13	13	13	


